<svg width="37" height="39" viewBox="0 0 37 39" fill="none" xmlns="http://www.w3.org/2000/svg">
<path d="M28.438 0.0365906H22.7769C24.2617 1.39944 25.5317 2.95719 26.5675 4.69058C27.0361 5.47464 27.4509 6.28465 27.8108 7.11886H32.2931L32.3141 7.08724C31.8845 5.69153 31.2662 4.22444 30.3878 2.75413C29.785 1.74478 29.1267 0.842887 28.438 0.0365906Z" fill="#F0F2F7"/>
<path d="M32.9965 6.06084L37 0.0365906H29.6853C30.2419 0.741112 30.7527 1.48244 31.2169 2.25885C31.9384 3.46681 32.5328 4.73801 32.9965 6.06084Z" fill="#F0F2F7"/>
<path d="M21.3142 0.0365906H14.9207C15.1919 0.206298 15.4607 0.38144 15.7262 0.562758C18.278 2.31023 20.3619 4.51717 21.9187 7.12256C21.932 7.14529 21.9459 7.16876 21.9592 7.19222V7.11886H26.7528C26.4613 6.47881 26.1253 5.83259 25.739 5.18636C24.4364 3.00635 22.8762 1.32558 21.3142 0.0365906Z" fill="#F0F2F7"/>
<path d="M13.1581 8.74528C10.9011 4.42181 7.52963 1.67512 4.90596 0.0365906H4.7071L0 7.11886H6.82684C11.2733 7.11886 14.8779 10.7235 14.8779 15.1697V15.7774C14.892 14.9889 14.9064 14.2009 14.9207 13.4124C14.5709 11.9984 14.024 10.4041 13.1581 8.74528Z" fill="#F0F2F7"/>
<mask id="mask0_204_645" style="mask-type:luminance" maskUnits="userSpaceOnUse" x="4" y="0" width="18" height="39">
<path d="M4.90381 0H21.9783V38.0698H4.90381V0Z" fill="white"/>
</mask>
<g mask="url(#mask0_204_645)">
<mask id="mask1_204_645" style="mask-type:luminance" maskUnits="userSpaceOnUse" x="4" y="0" width="18" height="39">
<path d="M21.0897 7.61785C18.7222 3.65578 15.5042 1.34262 12.9734 0.0365906H4.90601C7.52968 1.67512 10.9011 4.42181 13.1582 8.74528C14.024 10.4041 14.5709 11.9984 14.9207 13.4124C14.9064 14.2009 14.8921 14.9889 14.878 15.7774V38.0205H14.9052L21.9593 27.4072V9.24181C21.7026 8.70304 21.4141 8.16032 21.0897 7.61785Z" fill="white"/>
</mask>
<g mask="url(#mask1_204_645)">
<mask id="mask2_204_645" style="mask-type:luminance" maskUnits="userSpaceOnUse" x="4" y="0" width="18" height="39">
<path d="M21.0897 7.61785C18.7222 3.65578 15.5042 1.34262 12.9734 0.0365906H4.90601C7.52968 1.67512 10.9011 4.42181 13.1582 8.74528C14.024 10.4041 14.5709 11.9984 14.9207 13.4124C14.9064 14.2009 14.8921 14.9889 14.878 15.7774V38.0205H14.9052L21.9593 27.4072V9.24181C21.7026 8.70304 21.4141 8.16032 21.0897 7.61785Z" fill="white"/>
</mask>
<g mask="url(#mask2_204_645)">
<path d="M4.90601 0.0365906V38.0205H21.9593V0.0365906H4.90601Z" fill="#F0F2F7"/>
</g>
</g>
</g>
</svg>
